<?xml version="1.0" standalone="no"?><!DOCTYPE svg PUBLIC "-//W3C//DTD SVG 1.1//EN" "http://www.w3.org/Graphics/SVG/1.1/DTD/svg11.dtd"><svg t="1616574105298" class="icon" viewBox="0 0 1024 1024" version="1.1" xmlns="http://www.w3.org/2000/svg" p-id="6535" xmlns:xlink="http://www.w3.org/1999/xlink" width="200" height="200"><defs><style type="text/css"></style></defs><path d="M702.122667 768.170667H321.877333c-24.490667 0-44.288-19.797333-44.288-44.202667L250.965333 418.133333c0-16.042667 8.704-30.805333 22.784-38.656l210.005334-116.224a58.154667 58.154667 0 0 1 56.405333 0l210.005333 116.224c14.08 7.765333 22.784 22.613333 22.784 38.656l-26.538666 305.834667c0.085333 24.405333-19.797333 44.202667-44.288 44.202667z" fill="#64EDAC" p-id="6536"></path><path d="M850.602667 302.933333L566.698667 145.749333c-34.218667-18.944-75.093333-18.944-109.312 0L173.397333 302.933333c-29.866667 16.554667-48.469333 48.042667-48.469333 82.090667l35.925333 415.146667c0.853333 51.029333 42.752 92.245333 94.037334 92.245333h514.218666c51.285333 0 93.184-41.216 94.037334-92.245333l35.754666-412.245334 0.170667-2.986666c0-33.962667-18.602667-65.450667-48.469333-82.005334zM611.072 824.149333H412.928V612.949333c0-11.690667 6.741333-19.114667 10.24-19.114666H600.746667c3.498667 0 10.24 7.424 10.24 19.114666l0.085333 211.2z m183.978667-28.501333l-0.170667 2.986667c0 14.165333-11.605333 25.6-25.770667 25.6H679.338667V612.949333c0-48.213333-35.242667-87.381333-78.506667-87.381333H423.253333c-43.264 0-78.506667 39.168-78.506666 87.381333v211.2H254.890667c-14.250667 0-25.770667-11.52-25.770667-25.6l-35.84-414.72a25.770667 25.770667 0 0 1 13.226667-21.248l283.904-157.184c13.568-7.509333 29.696-7.509333 43.264 0L817.578667 362.666667c7.850667 4.352 12.8 12.373333 13.226666 21.248l-35.754666 411.733333z" fill="#333C4F" p-id="6537"></path></svg>